<svg width="935" height="225" viewBox="0 0 935 225" fill="none" xmlns="http://www.w3.org/2000/svg">
<path d="M7.61719 167.5V102.656C8.13802 94.7135 11.4583 87.1615 17.5781 80C25.2604 71.5365 34.8307 67.3047 46.2891 67.3047V84.1016C38.4766 84.2318 32.487 87.6172 28.3203 94.2578C25.9766 98.0339 24.8047 101.875 24.8047 105.781V167.5C24.8047 176.354 29.362 182.865 38.4766 187.031C41.6016 188.464 44.2057 189.18 46.2891 189.18V205.977C38.4766 205.977 30.7943 203.242 23.2422 197.773C12.9557 190.221 7.7474 180.13 7.61719 167.5ZM55.8594 205.977V189.18C59.7656 189.18 63.9974 186.966 68.5547 182.539C72.9818 177.982 75.2604 173.099 75.3906 167.891V151.875H55.8594V136.055H92.5781V170.625C92.5781 178.568 88.5417 186.445 80.4688 194.258C72.2656 201.94 64.0625 205.846 55.8594 205.977ZM55.8594 84.1016V67.3047C65.7552 67.1745 74.6094 71.3411 82.4219 79.8047C89.1927 87.3568 92.5781 95.4948 92.5781 104.219L75.9766 110.273C75.9766 110.143 75.9766 109.948 75.9766 109.688C75.9766 109.427 75.9766 109.167 75.9766 108.906C75.9766 108.516 75.9115 108.125 75.7812 107.734C75.7812 107.344 75.7812 106.953 75.7812 106.562C75.7812 106.172 75.7812 105.846 75.7812 105.586V105.195C75.1302 96.0807 70.8333 89.6354 62.8906 85.8594C60.4167 84.8177 58.0729 84.2318 55.8594 84.1016ZM107.227 176.094V127.852C107.227 121.732 109.961 115.742 115.43 109.883C122.201 102.852 130.664 99.3359 140.82 99.3359V115.156C133.138 115.156 127.799 118.346 124.805 124.727C123.893 126.68 123.438 128.633 123.438 130.586V173.555C123.438 178.372 125.651 182.474 130.078 185.859C133.203 188.203 136.784 189.375 140.82 189.375V205.195C128.451 205.195 118.88 200.182 112.109 190.156C108.854 185.208 107.227 180.521 107.227 176.094ZM149.219 205.195V189.375C156.12 189.375 161.068 186.25 164.062 180C165.104 177.917 165.625 175.898 165.625 173.945V130.586C165.625 125.247 163.346 121.016 158.789 117.891C155.924 116.068 152.669 115.156 149.023 115.156V99.3359C161.003 99.3359 170.247 104.219 176.758 113.984C180.013 118.802 181.641 123.424 181.641 127.852V176.094C181.641 182.474 178.906 188.659 173.438 194.648C167.057 201.549 158.984 205.065 149.219 205.195ZM197.852 155.391V139.766H259.57V155.391H197.852ZM271.484 116.328V100.508H284.375V66.7188H300.977V100.508H313.477V116.523H300.977V172.578C300.977 181.823 304.753 186.966 312.305 188.008C313.737 188.268 315.169 188.398 316.602 188.398H319.336L323.047 205H316.016C300 204.87 290.169 198.88 286.523 187.031C285.221 182.604 284.57 177.135 284.57 170.625L284.375 116.328H271.484ZM331.641 176.094V127.656C331.771 121.667 334.635 115.742 340.234 109.883C347.005 102.982 355.208 99.4661 364.844 99.3359V114.766C358.594 114.766 353.711 117.5 350.195 122.969C348.763 125.312 348.047 127.461 348.047 129.414V142.695H391.797V129.414C391.797 123.555 388.802 119.258 382.812 116.523C380.078 115.221 377.279 114.57 374.414 114.57V99.3359C383.398 99.3359 391.406 102.526 398.438 108.906C404.297 114.505 407.292 120.69 407.422 127.461V158.516H348.047V176.094C348.047 179.74 350.13 183.125 354.297 186.25C357.682 188.594 361.263 189.766 365.039 189.766V205C353.19 205 343.88 200.182 337.109 190.547C333.464 185.469 331.641 180.651 331.641 176.094ZM374.414 205V189.57C382.227 189.57 388.086 186.185 391.992 179.414C392.773 177.982 393.359 176.615 393.75 175.312L407.617 180.391C405.273 189.375 399.935 196.146 391.602 200.703C386.263 203.568 380.534 205 374.414 205ZM419.336 177.266L434.766 174.336C434.766 180.195 437.826 184.818 443.945 188.203C446.94 189.635 449.805 190.417 452.539 190.547V205.977C439.909 205.977 430.469 201.419 424.219 192.305C420.964 187.487 419.336 182.474 419.336 177.266ZM420.312 129.219C420.312 117.37 425.716 108.581 436.523 102.852C441.732 100.117 446.94 98.75 452.148 98.75V113.984C446.159 113.984 441.536 116.458 438.281 121.406C436.589 123.88 435.742 126.484 435.742 129.219C435.742 133.385 438.997 136.771 445.508 139.375C450.456 141.458 460.026 144.193 474.219 147.578C483.073 149.401 489.388 153.763 493.164 160.664C495.117 164.31 496.094 168.411 496.094 172.969C496.094 185.469 491.081 194.714 481.055 200.703C475.195 204.219 468.49 205.977 460.938 205.977V190.547C466.927 190.547 471.94 188.464 475.977 184.297C478.841 181.302 480.273 177.786 480.273 173.75C480.273 168.542 475.13 164.375 464.844 161.25C462.24 160.469 458.073 159.362 452.344 157.93C446.224 156.497 441.797 155.326 439.062 154.414C429.167 150.508 423.177 144.583 421.094 136.641C420.573 134.297 420.312 131.823 420.312 129.219ZM460.742 114.18V98.75C471.94 98.75 480.99 102.917 487.891 111.25C492.188 116.589 494.336 122.188 494.336 128.047L478.906 130.586C478.906 123.424 475 118.411 467.188 115.547C464.844 114.635 462.695 114.18 460.742 114.18ZM503.32 116.328V100.508H516.211V66.7188H532.812V100.508H545.312V116.523H532.812V172.578C532.812 181.823 536.589 186.966 544.141 188.008C545.573 188.268 547.005 188.398 548.438 188.398H551.172L554.883 205H547.852C531.836 204.87 522.005 198.88 518.359 187.031C517.057 182.604 516.406 177.135 516.406 170.625L516.211 116.328H503.32ZM559.766 177.266L575.195 174.336C575.195 180.195 578.255 184.818 584.375 188.203C587.37 189.635 590.234 190.417 592.969 190.547V205.977C580.339 205.977 570.898 201.419 564.648 192.305C561.393 187.487 559.766 182.474 559.766 177.266ZM560.742 129.219C560.742 117.37 566.146 108.581 576.953 102.852C582.161 100.117 587.37 98.75 592.578 98.75V113.984C586.589 113.984 581.966 116.458 578.711 121.406C577.018 123.88 576.172 126.484 576.172 129.219C576.172 133.385 579.427 136.771 585.938 139.375C590.885 141.458 600.456 144.193 614.648 147.578C623.503 149.401 629.818 153.763 633.594 160.664C635.547 164.31 636.523 168.411 636.523 172.969C636.523 185.469 631.51 194.714 621.484 200.703C615.625 204.219 608.919 205.977 601.367 205.977V190.547C607.357 190.547 612.37 188.464 616.406 184.297C619.271 181.302 620.703 177.786 620.703 173.75C620.703 168.542 615.56 164.375 605.273 161.25C602.669 160.469 598.503 159.362 592.773 157.93C586.654 156.497 582.227 155.326 579.492 154.414C569.596 150.508 563.607 144.583 561.523 136.641C561.003 134.297 560.742 131.823 560.742 129.219ZM601.172 114.18V98.75C612.37 98.75 621.419 102.917 628.32 111.25C632.617 116.589 634.766 122.188 634.766 128.047L619.336 130.586C619.336 123.424 615.43 118.411 607.617 115.547C605.273 114.635 603.125 114.18 601.172 114.18Z" fill="#00ADD8"/>
<rect x="105" y="223" width="528" height="2" fill="#7A7878"/>
</svg>
